<?xml version="1.0" encoding="UTF-8" standalone="no"?>
<!-- Generator: Adobe Illustrator 19.2.1, SVG Export Plug-In . SVG Version: 6.00 Build 0)  -->

<svg
   xmlns:dc="http://purl.org/dc/elements/1.1/"
   xmlns:cc="http://creativecommons.org/ns#"
   xmlns:rdf="http://www.w3.org/1999/02/22-rdf-syntax-ns#"
   xmlns:svg="http://www.w3.org/2000/svg"
   xmlns="http://www.w3.org/2000/svg"
   xmlns:sodipodi="http://sodipodi.sourceforge.net/DTD/sodipodi-0.dtd"
   xmlns:inkscape="http://www.inkscape.org/namespaces/inkscape"
   version="1.1"
   id="Layer_1"
   x="0px"
   y="0px"
   viewBox="0 0 1417.1666 1418.1102"
   xml:space="preserve"
   inkscape:version="0.91 r13725"
   sodipodi:docname="tetu_crypt_mark-color.svg"
   width="1417.1666"
   height="1418.1102"
   inkscape:export-filename="X:\Dropbox\Tetu\logo\artwork\png\tetu_general_mark-color.png"
   inkscape:export-xdpi="90"
   inkscape:export-ydpi="90"><metadata
     id="metadata15"><rdf:RDF><cc:Work
         rdf:about=""><dc:format>image/svg+xml</dc:format><dc:type
           rdf:resource="http://purl.org/dc/dcmitype/StillImage" /><dc:title></dc:title></cc:Work></rdf:RDF></metadata><defs
     id="defs13" /><sodipodi:namedview
     pagecolor="#ffffff"
     bordercolor="#666666"
     borderopacity="1"
     objecttolerance="10"
     gridtolerance="10"
     guidetolerance="10"
     inkscape:pageopacity="0"
     inkscape:pageshadow="2"
     inkscape:window-width="1920"
     inkscape:window-height="1017"
     id="namedview11"
     showgrid="false"
     inkscape:zoom="0.35355339"
     inkscape:cx="436.60906"
     inkscape:cy="717.93318"
     inkscape:window-x="-8"
     inkscape:window-y="-8"
     inkscape:window-maximized="1"
     inkscape:current-layer="layer2"
     fit-margin-top="59"
     fit-margin-left="7.5"
     fit-margin-right="7.5"
     fit-margin-bottom="59"
     units="px" /><style
     type="text/css"
     id="style3">
	.st0{fill:#352F2F;}
	.st1{fill:#01CCCC;}
	.st2{fill:#CC9934;}
	.st3{fill:#FFFFFF;}
</style><g
     inkscape:groupmode="layer"
     id="layer1"
     inkscape:label="Crescent"
     style="display:inline"
     transform="translate(65.931033,1110.26)"><g
       id="g5"
       transform="matrix(20.533882,0,0,20.533882,-74.144413,-921.73877)"><path
         class="st2"
         d="m 65.5,15.8 c -1.6,-0.1 -3,1.1 -3.1,2.7 -0.5,6.9 -3.6,13.3 -8.7,18 C 48.6,41.2 42,43.9 35,43.9 28,43.9 21.4,41.3 16.3,36.5 11.2,31.8 8.1,25.4 7.6,18.5 7.5,16.9 6.1,15.7 4.5,15.8 2.8,16 1.6,17.4 1.7,19 c 0.6,8.4 4.4,16.1 10.5,21.8 6.2,5.8 14.2,8.9 22.7,8.9 8.5,0 16.5,-3.2 22.7,-8.9 6.2,-5.7 9.9,-13.5 10.5,-21.8 0.2,-1.6 -1,-3 -2.6,-3.2 z"
         id="path9"
         inkscape:connector-curvature="0"
         style="fill:#cc9934" /></g></g><g
     inkscape:groupmode="layer"
     id="layer2"
     inkscape:label="Float"
     style="display:inline"><path
       style="color:#000000;font-style:normal;font-variant:normal;font-weight:normal;font-stretch:normal;font-size:medium;line-height:normal;font-family:sans-serif;text-indent:0;text-align:start;text-decoration:none;text-decoration-line:none;text-decoration-style:solid;text-decoration-color:#000000;letter-spacing:normal;word-spacing:normal;text-transform:none;direction:ltr;block-progression:tb;writing-mode:lr-tb;baseline-shift:baseline;text-anchor:start;white-space:normal;clip-rule:nonzero;display:inline;overflow:visible;visibility:visible;opacity:1;isolation:auto;mix-blend-mode:normal;color-interpolation:sRGB;color-interpolation-filters:linearRGB;solid-color:#000000;solid-opacity:1;fill:#01cccc;fill-opacity:1;fill-rule:nonzero;stroke:none;stroke-width:95;stroke-linecap:round;stroke-linejoin:round;stroke-miterlimit:4;stroke-dasharray:none;stroke-dashoffset:0;stroke-opacity:1;color-rendering:auto;image-rendering:auto;shape-rendering:auto;text-rendering:auto;enable-background:accumulate"
       d="m 714.58943,167.1708 a 54.954506,57.837001 0 0 0 -41.93476,20.67848 L 323.81204,613.38907 a 54.954506,57.837001 0 0 0 21.78304,91.71432 L 685.574,843.49644 a 54.954506,57.837001 0 0 0 58.86685,-0.63491 L 1076.4621,698.86609 a 54.954506,57.837001 0 0 0 20.8273,-91.05327 L 761.21926,194.16029 A 54.954506,57.837001 0 0 0 714.58943,167.1708 Z m -54.99646,213.67114 0,328.06375 -201.6484,-82.08133 201.6484,-245.98242 z m 109.89803,1.47432 194.99669,240.01382 -194.99669,84.56865 0,-324.58247 z"
       id="path4154"
       inkscape:connector-curvature="0" /></g></svg>